<svg width="192" height="192" viewBox="0 0 32 32" fill="none" xmlns="http://www.w3.org/2000/svg">
  <defs>
    <linearGradient id="mainGradient" x1="0%" y1="0%" x2="100%" y2="100%">
      <stop offset="0%" stopColor="#1e40af" />
      <stop offset="25%" stopColor="#0ea5e9" />
      <stop offset="50%" stopColor="#06b6d4" />
      <stop offset="75%" stopColor="#10b981" />
      <stop offset="100%" stopColor="#22c55e" />
    </linearGradient>
    <linearGradient id="starGradient" x1="0%" y1="0%" x2="100%" y2="100%">
      <stop offset="0%" stopColor="#fbbf24" />
      <stop offset="50%" stopColor="#f59e0b" />
      <stop offset="100%" stopColor="#d97706" />
    </linearGradient>
    <filter id="glow" x="-50%" y="-50%" width="200%" height="200%">
      <feGaussianBlur stdDeviation="12" result="coloredBlur"/>
      <feMerge> 
        <feMergeNode in="coloredBlur"/>
        <feMergeNode in="SourceGraphic"/>
      </feMerge>
    </filter>
    <filter id="starGlow" x="-50%" y="-50%" width="200%" height="200%">
      <feGaussianBlur stdDeviation="9" result="coloredBlur"/>
      <feMerge> 
        <feMergeNode in="coloredBlur"/>
        <feMergeNode in="SourceGraphic"/>
      </feMerge>
    </filter>
    <filter id="shadow" x="-50%" y="-50%" width="200%" height="200%">
      <feDropShadow dx="0" dy="12" stdDeviation="18" floodColor="#000000" floodOpacity="0.3" />
    </filter>
  </defs>

  <!-- Main flowing P shape -->
  <path 
    d="M6 24 Q8 20 10 18 Q12 16 14 18 Q16 20 18 18 Q20 16 22 18 Q24 20 26 24 Q24 26 22 28 Q20 30 18 28 Q16 26 14 28 Q12 30 10 28 Q8 26 6 24 Z" 
    fill="url(#mainGradient)" 
    filter="url(#glow)"
  />
  
  <!-- Star element -->
  <g filter="url(#starGlow)">
    <path 
      d="M20 8 L22 12 L26 12 L23 15 L24 19 L20 17 L16 19 L17 15 L14 12 L18 12 Z" 
      fill="url(#starGradient)"
    />
  </g>
  
  <!-- Subtle shadow for depth -->
  <path 
    d="M6 24 Q8 20 10 18 Q12 16 14 18 Q16 20 18 18 Q20 16 22 18 Q24 20 26 24 Q24 26 22 28 Q20 30 18 28 Q16 26 14 28 Q12 30 10 28 Q8 26 6 24 Z" 
    fill="none" 
    stroke="rgba(0,0,0,0.1)" 
    strokeWidth="3"
    filter="url(#shadow)"
  />
</svg>